<svg width="75" height="96" viewBox="0 0 75 96" fill="none" xmlns="http://www.w3.org/2000/svg">
<path d="M4.984 72.2H7.624V86.6H11.968V89H4.984V72.2ZM13.234 72.2H15.874V89H13.234V72.2ZM17.1552 72.2H19.8192L21.5472 85.232H21.5952L23.3232 72.2H25.7472L23.2032 89H19.6992L17.1552 72.2ZM27.0153 72.2H34.2153V74.6H29.6553V79.04H33.2793V81.44H29.6553V86.6H34.2153V89H27.0153V72.2ZM39.5778 72.2H43.3458L45.0258 84.224H45.0738L46.7538 72.2H50.5218V89H48.0258V76.28H47.9778L46.0578 89H43.8498L41.9298 76.28H41.8818V89H39.5778V72.2ZM54.5318 72.2H58.1078L60.8438 89H58.2038L57.7238 85.664V85.712H54.7238L54.2438 89H51.7958L54.5318 72.2ZM57.4118 83.432L56.2358 75.128H56.1878L55.0358 83.432H57.4118ZM62.1246 72.2H66.0126C67.3246 72.2 68.3086 72.552 68.9646 73.256C69.6206 73.96 69.9486 74.992 69.9486 76.352V78.008C69.9486 79.368 69.6206 80.4 68.9646 81.104C68.3086 81.808 67.3246 82.16 66.0126 82.16H64.7646V89H62.1246V72.2ZM66.0126 79.76C66.4446 79.76 66.7646 79.64 66.9726 79.4C67.1966 79.16 67.3086 78.752 67.3086 78.176V76.184C67.3086 75.608 67.1966 75.2 66.9726 74.96C66.7646 74.72 66.4446 74.6 66.0126 74.6H64.7646V79.76H66.0126Z" fill="#F85050"/>
<path d="M37.5 52.75L25.8909 36.3562C23.9908 34.1127 22.7671 31.3755 22.3624 28.4634C21.9577 25.5513 22.3887 22.5841 23.6052 19.9075C24.8216 17.2309 26.7735 14.9549 29.2335 13.3447C31.6934 11.7346 34.5602 10.8564 37.5 10.8125C41.5751 10.8528 45.4681 12.5064 48.3264 15.4112C51.1848 18.3159 52.7754 22.2351 52.75 26.3103C52.7516 29.8653 51.5413 33.3147 49.3188 36.0894L37.5 52.75ZM37.5 14.625C34.4345 14.6602 31.5082 15.9105 29.3638 18.1014C27.2193 20.2923 26.032 23.2447 26.0625 26.3103C26.0769 29.108 27.0834 31.8099 28.9028 33.9353L37.5 46.1162L46.3259 33.6875C48.0036 31.5934 48.924 28.9935 48.9375 26.3103C48.968 23.2447 47.7807 20.2923 45.6362 18.1014C43.4918 15.9105 40.5655 14.6602 37.5 14.625Z" fill="#F85050"/>
<path d="M37.5 27.9688C39.6056 27.9688 41.3125 26.2618 41.3125 24.1562C41.3125 22.0507 39.6056 20.3438 37.5 20.3438C35.3944 20.3438 33.6875 22.0507 33.6875 24.1562C33.6875 26.2618 35.3944 27.9688 37.5 27.9688Z" fill="#F85050"/>
<path d="M60.375 29.875H56.5625V33.6875H60.375V60.375H14.625V33.6875H18.4375V29.875H14.625C13.6139 29.875 12.6441 30.2767 11.9292 30.9917C11.2142 31.7066 10.8125 32.6764 10.8125 33.6875V60.375C10.8125 61.3861 11.2142 62.3559 11.9292 63.0708C12.6441 63.7858 13.6139 64.1875 14.625 64.1875H60.375C61.3861 64.1875 62.3559 63.7858 63.0708 63.0708C63.7858 62.3559 64.1875 61.3861 64.1875 60.375V33.6875C64.1875 32.6764 63.7858 31.7066 63.0708 30.9917C62.3559 30.2767 61.3861 29.875 60.375 29.875Z" fill="#F85050"/>
</svg>
