<svg width="63" height="94" viewBox="0 0 63 94" fill="none" xmlns="http://www.w3.org/2000/svg">
<path d="M15.984 70.2H18.624V87H15.984V70.2ZM20.6012 70.2H23.9132L26.4812 80.256H26.5292V70.2H28.8812V87H26.1692L23.0012 74.736H22.9532V87H20.6012V70.2ZM30.8434 70.2H37.8274V72.6H33.4834V77.28H36.8914V79.68H33.4834V87H30.8434V70.2ZM42.9094 87.24C41.6134 87.24 40.6214 86.872 39.9334 86.136C39.2454 85.4 38.9014 84.36 38.9014 83.016V74.184C38.9014 72.84 39.2454 71.8 39.9334 71.064C40.6214 70.328 41.6134 69.96 42.9094 69.96C44.2054 69.96 45.1974 70.328 45.8854 71.064C46.5734 71.8 46.9174 72.84 46.9174 74.184V83.016C46.9174 84.36 46.5734 85.4 45.8854 86.136C45.1974 86.872 44.2054 87.24 42.9094 87.24ZM42.9094 84.84C43.8214 84.84 44.2774 84.288 44.2774 83.184V74.016C44.2774 72.912 43.8214 72.36 42.9094 72.36C41.9974 72.36 41.5414 72.912 41.5414 74.016V83.184C41.5414 84.288 41.9974 84.84 42.9094 84.84Z" fill="#F85050"/>
<path d="M28.875 18.375H34.125V23.625H28.875V18.375ZM28.875 28.875H34.125V44.625H28.875V28.875ZM31.5 5.25C17.01 5.25 5.25 17.01 5.25 31.5C5.25 45.99 17.01 57.75 31.5 57.75C45.99 57.75 57.75 45.99 57.75 31.5C57.75 17.01 45.99 5.25 31.5 5.25ZM31.5 52.5C19.9237 52.5 10.5 43.0762 10.5 31.5C10.5 19.9237 19.9237 10.5 31.5 10.5C43.0762 10.5 52.5 19.9237 52.5 31.5C52.5 43.0762 43.0762 52.5 31.5 52.5Z" fill="#F85050"/>
</svg>
