<svg width="69" height="94" viewBox="0 0 69 94" fill="none" xmlns="http://www.w3.org/2000/svg">
<path d="M4.416 87.24C3.136 87.24 2.168 86.88 1.512 86.16C0.856 85.424 0.528 84.376 0.528 83.016V82.056H3.024V83.208C3.024 84.296 3.48 84.84 4.392 84.84C4.84 84.84 5.176 84.712 5.4 84.456C5.64 84.184 5.76 83.752 5.76 83.16C5.76 82.456 5.6 81.84 5.28 81.312C4.96 80.768 4.368 80.12 3.504 79.368C2.416 78.408 1.656 77.544 1.224 76.776C0.792 75.992 0.576 75.112 0.576 74.136C0.576 72.808 0.912 71.784 1.584 71.064C2.256 70.328 3.232 69.96 4.512 69.96C5.776 69.96 6.728 70.328 7.368 71.064C8.024 71.784 8.352 72.824 8.352 74.184V74.88H5.856V74.016C5.856 73.44 5.744 73.024 5.52 72.768C5.296 72.496 4.968 72.36 4.536 72.36C3.656 72.36 3.216 72.896 3.216 73.968C3.216 74.576 3.376 75.144 3.696 75.672C4.032 76.2 4.632 76.84 5.496 77.592C6.6 78.552 7.36 79.424 7.776 80.208C8.192 80.992 8.4 81.912 8.4 82.968C8.4 84.344 8.056 85.4 7.368 86.136C6.696 86.872 5.712 87.24 4.416 87.24ZM9.91369 70.2H17.1137V72.6H12.5537V77.04H16.1777V79.44H12.5537V84.6H17.1137V87H9.91369V70.2ZM20.6964 72.6H17.9364V70.2H26.0964V72.6H23.3364V87H20.6964V72.6ZM29.673 72.6H26.913V70.2H35.073V72.6H32.313V87H29.673V72.6ZM36.3512 70.2H38.9912V87H36.3512V70.2ZM40.9684 70.2H44.2804L46.8484 80.256H46.8964V70.2H49.2484V87H46.5364L43.3684 74.736H43.3204V87H40.9684V70.2ZM54.9546 87.24C53.6746 87.24 52.6986 86.88 52.0266 86.16C51.3546 85.424 51.0186 84.376 51.0186 83.016V74.184C51.0186 72.824 51.3546 71.784 52.0266 71.064C52.6986 70.328 53.6746 69.96 54.9546 69.96C56.2346 69.96 57.2106 70.328 57.8826 71.064C58.5546 71.784 58.8906 72.824 58.8906 74.184V75.624H56.3946V74.016C56.3946 72.912 55.9386 72.36 55.0266 72.36C54.1146 72.36 53.6586 72.912 53.6586 74.016V83.208C53.6586 84.296 54.1146 84.84 55.0266 84.84C55.9386 84.84 56.3946 84.296 56.3946 83.208V79.92H55.0746V77.52H58.8906V83.016C58.8906 84.376 58.5546 85.424 57.8826 86.16C57.2106 86.88 56.2346 87.24 54.9546 87.24ZM64.0176 87.24C62.7376 87.24 61.7696 86.88 61.1136 86.16C60.4576 85.424 60.1296 84.376 60.1296 83.016V82.056H62.6256V83.208C62.6256 84.296 63.0816 84.84 63.9936 84.84C64.4416 84.84 64.7776 84.712 65.0016 84.456C65.2416 84.184 65.3616 83.752 65.3616 83.16C65.3616 82.456 65.2016 81.84 64.8816 81.312C64.5616 80.768 63.9696 80.12 63.1056 79.368C62.0176 78.408 61.2576 77.544 60.8256 76.776C60.3936 75.992 60.1776 75.112 60.1776 74.136C60.1776 72.808 60.5136 71.784 61.1856 71.064C61.8576 70.328 62.8336 69.96 64.1136 69.96C65.3776 69.96 66.3296 70.328 66.9696 71.064C67.6256 71.784 67.9536 72.824 67.9536 74.184V74.88H65.4576V74.016C65.4576 73.44 65.3456 73.024 65.1216 72.768C64.8976 72.496 64.5696 72.36 64.1376 72.36C63.2576 72.36 62.8176 72.896 62.8176 73.968C62.8176 74.576 62.9776 75.144 63.2976 75.672C63.6336 76.2 64.2336 76.84 65.0976 77.592C66.2016 78.552 66.9616 79.424 67.3776 80.208C67.7936 80.992 68.0016 81.912 68.0016 82.968C68.0016 84.344 67.6576 85.4 66.9696 86.136C66.2976 86.872 65.3136 87.24 64.0176 87.24Z" fill="#F85050"/>
<path d="M34.5 40.6875C32.0633 40.6875 29.7265 39.7195 28.0035 37.9966C26.2805 36.2736 25.3125 33.9367 25.3125 31.5C25.3125 29.0633 26.2805 26.7265 28.0035 25.0035C29.7265 23.2805 32.0633 22.3125 34.5 22.3125C36.9367 22.3125 39.2736 23.2805 40.9966 25.0035C42.7195 26.7265 43.6875 29.0633 43.6875 31.5C43.6875 33.9367 42.7195 36.2736 40.9966 37.9966C39.2736 39.7195 36.9367 40.6875 34.5 40.6875ZM54.0038 34.0463C54.1088 33.2063 54.1875 32.3663 54.1875 31.5C54.1875 30.6338 54.1088 29.7675 54.0038 28.875L59.5425 24.5963C60.0413 24.2025 60.1725 23.4938 59.8575 22.9163L54.6075 13.8338C54.2925 13.2563 53.5838 13.02 53.0063 13.2563L46.47 15.8813C45.105 14.8575 43.6875 13.965 42.0338 13.3088L41.0625 6.35251C41.0092 6.04332 40.8481 5.763 40.6079 5.5612C40.3677 5.3594 40.0638 5.24916 39.75 5.25H29.25C28.5938 5.25 28.0425 5.72251 27.9375 6.35251L26.9663 13.3088C25.3125 13.965 23.895 14.8575 22.53 15.8813L15.9938 13.2563C15.4163 13.02 14.7075 13.2563 14.3925 13.8338L9.14251 22.9163C8.80126 23.4938 8.95876 24.2025 9.45751 24.5963L14.9963 28.875C14.8913 29.7675 14.8125 30.6338 14.8125 31.5C14.8125 32.3663 14.8913 33.2063 14.9963 34.0463L9.45751 38.4038C8.95876 38.7975 8.80126 39.5063 9.14251 40.0838L14.3925 49.1663C14.7075 49.7438 15.4163 49.9538 15.9938 49.7438L22.53 47.0925C23.895 48.1425 25.3125 49.035 26.9663 49.6913L27.9375 56.6475C28.0425 57.2775 28.5938 57.75 29.25 57.75H39.75C40.4063 57.75 40.9575 57.2775 41.0625 56.6475L42.0338 49.6913C43.6875 49.0088 45.105 48.1425 46.47 47.0925L53.0063 49.7438C53.5838 49.9538 54.2925 49.7438 54.6075 49.1663L59.8575 40.0838C60.1725 39.5063 60.0413 38.7975 59.5425 38.4038L54.0038 34.0463Z" fill="#F85050"/>
</svg>
