<svg width="45" height="45" viewBox="0 0 45 45" fill="none" xmlns="http://www.w3.org/2000/svg">
<path d="M31.9689 38.025C30.1314 39.8062 28.1252 39.525 26.1939 38.6812C24.1502 37.8187 22.2752 37.7812 20.1189 38.6812C17.4189 39.8437 15.9939 39.5062 14.3814 38.025C5.23144 28.5938 6.58144 14.2312 16.9689 13.7062C19.5002 13.8375 21.2627 15.0937 22.7439 15.2062C24.9564 14.7562 27.0752 13.4625 29.4377 13.6312C32.2689 13.8562 34.4064 14.9812 35.8127 17.0062C29.9627 20.5125 31.3502 28.2188 36.7127 30.375C35.6439 33.1875 34.2564 35.9812 31.9502 38.0438L31.9689 38.025ZM22.5564 13.5937C22.2752 9.4125 25.6689 5.9625 29.5689 5.625C30.1127 10.4625 25.1814 14.0625 22.5564 13.5937Z" fill="white"/>
</svg>
