<svg width="284" height="133" viewBox="0 0 284 133" fill="none" xmlns="http://www.w3.org/2000/svg">
<mask id="mask0_23_3976" style="mask-type:luminance" maskUnits="userSpaceOnUse" x="0" y="0" width="237" height="133">
<path d="M0 0H236.304V132.523H0V0Z" fill="white"/>
</mask>
<g mask="url(#mask0_23_3976)">
<path fill-rule="evenodd" clip-rule="evenodd" d="M142.253 0L77.1235 35.9721L136.723 36.2865L142.188 18.5445L147.469 36.4384L206.396 35.7551L142.253 0Z" fill="#FF0000"/>
<path fill-rule="evenodd" clip-rule="evenodd" d="M74.3797 39.1278H80.4416L71.1373 49.1918L62.3753 81.6393L69.6299 90.7814L74.3905 90.7055L78.045 102.548L64.9453 102.624L53.624 91.1718L65.1405 49.5063L74.3797 39.1278Z" fill="#FF0000"/>
<path fill-rule="evenodd" clip-rule="evenodd" d="M112.149 39.2039L103.854 50.7318L95.5579 78.5594L84.4318 90.3261L76.9819 90.5538L80.9835 102.7H91.3504L109.471 85.0988L102.466 76.7158L108.614 63.4961L131.343 55.189L135.204 39.5075L112.149 39.2039Z" fill="#FF0000"/>
<path fill-rule="evenodd" clip-rule="evenodd" d="M112.757 87.0509L112.909 102.884L129.348 95.6291L133.491 78.7112L112.757 87.0509Z" fill="#FF0000"/>
<path fill-rule="evenodd" clip-rule="evenodd" d="M83.8787 39.052H108.462L100.936 49.3545L92.9444 76.8677L83.6728 87.246L70.8441 87.5497L65.4546 81.0212L73.7504 50.2763L83.8787 39.052Z" fill="#FF0000"/>
<path fill-rule="evenodd" clip-rule="evenodd" d="M64.9886 105.932H109.84L95.7099 131.297L70.6709 132.523L62.9932 126.992L64.9886 105.932Z" fill="#FF0000"/>
<path fill-rule="evenodd" clip-rule="evenodd" d="M110.718 65.8493L105.643 76.4121L111.868 83.7214L152.696 68.1051L142.188 24.2922L133.035 57.6507L110.718 65.8493Z" fill="#FF0000"/>
<path fill-rule="evenodd" clip-rule="evenodd" d="M58.3307 65.7952L53.4074 83.0167L29.9082 75.9459L48.0397 29.975L48.7987 63.1816L58.3307 65.7952Z" fill="#FF0000"/>
<path fill-rule="evenodd" clip-rule="evenodd" d="M110.415 103.004V87.8969L94.5713 103.004H110.415Z" fill="#FF0000"/>
</g>
<path d="M174.384 77.8436L176.26 89.4258L174.851 97.7654H177.659L178.136 104.717H173.918V107.038H166.891L171.576 77.8436H174.384Z" fill="#FF0000"/>
<path d="M182.344 77.8436L186.866 106.864H180.468L175.794 77.8436H182.344Z" fill="#FF0000"/>
<path d="M220.743 77.8436V88.9704L223.085 95.4555H220.743V106.571H213.716V77.8436H220.743Z" fill="#FF0000"/>
<path d="M224.961 106.571V95.4555L222.619 88.9704H224.961V77.8436H231.978V106.571H224.961Z" fill="#FF0000"/>
<path d="M179.064 42.6309H172.508V71.3595H179.064V42.6309Z" fill="#FF0000"/>
<path d="M163.15 66.4566V71.3585H156.589V48.194L163.15 66.4566Z" fill="#FF0000"/>
<path d="M163.616 42.6309L167.835 55.1456L170.643 46.3397V64.8733H164.083L156.589 42.6309H163.616Z" fill="#FF0000"/>
<path d="M162.212 77.8436H155.657V106.572H162.212V77.8436Z" fill="#FF0000"/>
<path d="M146.287 101.67V106.571H139.737V83.407L146.287 101.67Z" fill="#FF0000"/>
<path d="M146.753 77.8436L150.972 90.3584L153.781 81.5525V100.086H147.231L139.737 77.8436H146.753Z" fill="#FF0000"/>
<path d="M283.959 77.8436H277.403V106.572H283.959V77.8436Z" fill="#FF0000"/>
<path d="M268.045 101.67V106.571H261.484V83.407L268.045 101.67Z" fill="#FF0000"/>
<path d="M268.511 77.8436L272.719 90.3584L275.527 81.5525V100.086H268.978L261.484 77.8436H268.511Z" fill="#FF0000"/>
<path d="M201.549 42.6309V49.116H195.91L194.056 42.6309H201.549Z" fill="#FF0000"/>
<path d="M201.549 53.7468V60.2428H195.91L194.056 53.7468H201.549Z" fill="#FF0000"/>
<path d="M201.549 64.8732V71.3584H195.91L194.056 64.8732H201.549Z" fill="#FF0000"/>
<path d="M192.646 42.6309L194.522 49.116H192.18V52.8248L194.522 60.2427H192.18V64.8733V65.7952L194.522 71.8249H185.489V42.6309H192.646Z" fill="#FF0000"/>
<path d="M214.66 42.6309L216.059 49.116C214.963 49.116 213.998 49.8642 213.727 50.9378L213.716 50.9704V57.4556H207.167V50.9704L207.188 50.6234C207.448 46.5241 210.571 43.1731 214.66 42.6309Z" fill="#FF0000"/>
<path d="M216.525 71.3586L213.716 63.9407V57.4556H207.167V63.9407C207.427 68.1159 210.886 71.3586 215.061 71.3586H216.525Z" fill="#FF0000"/>
<path d="M217.468 71.3586C221.307 71.0875 224.451 68.2028 225.059 64.4071L225.427 62.0863H218.867L218.693 62.9864C218.52 63.854 217.847 64.5156 216.98 64.6891L216.058 64.8733L217.468 71.3586Z" fill="#FF0000"/>
<path d="M216.058 42.6309H216.221C216.427 42.6309 216.633 42.6525 216.839 42.6959L218.606 43.0645C222.521 43.8779 225.232 47.4459 224.961 51.4368H218.4L216.058 42.6309Z" fill="#FF0000"/>
<path d="M255.064 77.8436V84.3288H249.436L247.571 77.8436H255.064Z" fill="#FF0000"/>
<path d="M255.064 88.9706V95.4557H249.436L247.571 88.9706H255.064Z" fill="#FF0000"/>
<path d="M255.064 100.086V106.571H249.436L247.571 100.086H255.064Z" fill="#FF0000"/>
<path d="M246.172 77.8436L248.048 84.3288H245.706V88.0377L248.048 95.4555H245.706V100.086V101.019L248.048 107.038H239.004V77.8436H246.172Z" fill="#FF0000"/>
<path d="M260.4 42.6309L262.254 54.213L260.855 62.5527H263.642L264.108 69.5041H259.933V71.8249H252.982L257.613 42.6309H260.4Z" fill="#FF0000"/>
<path d="M268.273 42.6309L272.741 71.6513H266.419L261.788 42.6309H268.273Z" fill="#FF0000"/>
<path d="M237.128 42.6309V53.7467L239.47 60.2427H237.128V71.3586H230.112V42.6309H237.128Z" fill="#FF0000"/>
<path d="M241.347 71.3586V60.2427L239.004 53.7467H241.347V42.6309H248.374V71.3586H241.347Z" fill="#FF0000"/>
<path d="M195.921 77.8436L202.482 93.6011V106.571H195.921V94.9891L188.438 77.8436H195.921Z" fill="#FF0000"/>
<path d="M202.481 77.8436H209.975L203.414 92.6683L200.139 84.3288L202.481 77.8436Z" fill="#FF0000"/>
</svg>
