<svg width="75" height="96" viewBox="0 0 75 96" fill="currentColor" xmlns="http://www.w3.org/2000/svg">
<path d="M31.25 59.375V43.75H43.75V59.375C43.75 61.0938 45.1562 62.5 46.875 62.5H56.25C57.9688 62.5 59.375 61.0938 59.375 59.375V37.5H64.6875C66.125 37.5 66.8125 35.7188 65.7188 34.7813L39.5938 11.25C38.4063 10.1875 36.5938 10.1875 35.4063 11.25L9.28125 34.7813C8.21875 35.7188 8.875 37.5 10.3125 37.5H15.625V59.375C15.625 61.0938 17.0313 62.5 18.75 62.5H28.125C29.8438 62.5 31.25 61.0938 31.25 59.375Z" fill="black"/>
<path d="M16.984 72.2H19.624V79.04H22.456V72.2H25.096V89H22.456V81.44H19.624V89H16.984V72.2ZM30.8781 89.24C29.5821 89.24 28.5901 88.872 27.9021 88.136C27.2141 87.4 26.8701 86.36 26.8701 85.016V76.184C26.8701 74.84 27.2141 73.8 27.9021 73.064C28.5901 72.328 29.5821 71.96 30.8781 71.96C32.1741 71.96 33.1661 72.328 33.8541 73.064C34.5421 73.8 34.8861 74.84 34.8861 76.184V85.016C34.8861 86.36 34.5421 87.4 33.8541 88.136C33.1661 88.872 32.1741 89.24 30.8781 89.24ZM30.8781 86.84C31.7901 86.84 32.2461 86.288 32.2461 85.184V76.016C32.2461 74.912 31.7901 74.36 30.8781 74.36C29.9661 74.36 29.5101 74.912 29.5101 76.016V85.184C29.5101 86.288 29.9661 86.84 30.8781 86.84ZM36.6715 72.2H40.4395L42.1195 84.224H42.1675L43.8475 72.2H47.6155V89H45.1195V76.28H45.0715L43.1515 89H40.9435L39.0235 76.28H38.9755V89H36.6715V72.2ZM49.5856 72.2H56.7856V74.6H52.2256V79.04H55.8496V81.44H52.2256V86.6H56.7856V89H49.5856V72.2Z" fill="black"/>
</svg>
